<?xml version="1.0" encoding="UTF-8"?>
<!DOCTYPE svg PUBLIC "-//W3C//DTD SVG 1.1//EN" "http://www.w3.org/Graphics/SVG/1.1/DTD/svg11.dtd">
<!-- Creator: CorelDRAW X5 -->
<svg xmlns="http://www.w3.org/2000/svg" xml:space="preserve" width="2048px" height="2048px" style="shape-rendering:geometricPrecision; text-rendering:geometricPrecision; image-rendering:optimizeQuality; fill-rule:evenodd; clip-rule:evenodd"
viewBox="0 0 2048 2048"
 xmlns:xlink="http://www.w3.org/1999/xlink">
 <defs>
  <style type="text/css">
   <![CDATA[
    .fil0 {fill:#7E57C2}
    .fil1 {fill:#FFFFFE;fill-rule:nonzero}
   ]]>
  </style>
 </defs>
 <g id="Layer_x0020_1">
  <metadata id="CorelCorpID_0Corel-Layer"/>
  <rect class="fil0" width="2048" height="2048" rx="256" ry="256"/>
  <g id="_617656792">
   <path class="fil1" d="M352 1024l576 0 0 768 -521 0c-24,0 -46,-10 -62,-25 -16,-16 -26,-37 -26,-61l0 -649 0 -32 32 0zm768 0l576 0 32 0 0 32 0 649c0,24 -10,46 -26,61 -16,16 -38,25 -62,25l-521 0 0 -768z"/>
   <path class="fil1" d="M1024 308c10,-11 20,-20 32,-28 22,-14 48,-21 81,-21 37,0 70,18 95,42 28,28 45,66 45,98 0,52 -31,102 -79,150 -44,45 -102,90 -159,134l-16 13 -16 -13c-58,-45 -115,-89 -159,-134 -47,-49 -79,-98 -79,-150 0,-32 17,-70 45,-98 25,-25 58,-42 95,-42 34,0 59,7 81,21 12,7 23,17 32,28z"/>
   <path class="fil1" d="M1760 992l-640 0 0 -256 555 0c32,0 61,13 82,33 21,21 35,49 35,81l0 110 0 32 -32 0zm-832 0l-640 0 -32 0 0 -32 0 -110c0,-32 13,-60 35,-81 21,-21 50,-33 82,-33l555 0 0 256z"/>
   <path class="fil1" d="M891 677c-31,-24 -70,-52 -112,-77 -49,-30 -100,-55 -146,-67 -42,-10 -80,1 -100,21 -9,9 -14,20 -14,30 1,11 8,24 23,36 46,37 152,66 349,57zm164 3c29,-27 101,-86 183,-135 54,-33 111,-61 164,-74 65,-16 125,3 160,37 22,22 34,49 33,78 -1,29 -16,58 -47,83 -137,110 -423,55 -601,68 -249,18 -384,-19 -444,-68 -31,-25 -45,-54 -47,-83 -1,-29 11,-57 33,-78 35,-34 95,-54 160,-37 52,13 110,42 164,74 81,49 154,108 183,135l30 28 30 -28zm216 -80c-41,25 -81,53 -112,77 197,9 303,-19 349,-57 16,-12 23,-25 23,-36 0,-10 -5,-21 -14,-30 -21,-20 -58,-31 -100,-21 -46,11 -97,37 -146,67z"/>
  </g>
 </g>
</svg>
